<mxfile host="app.diagrams.net" modified="2023-12-20T21:46:12.688Z" agent="Mozilla/5.0 (Windows NT 10.0; Win64; x64; rv:120.0) Gecko/20100101 Firefox/120.0" etag="KpeG3ZZNBi_BnXHS5k6C" version="22.1.11" type="github">
  <diagram name="Page-1" id="5jQ6DaYwQfchR6-d_hJC">
    <mxGraphModel dx="997" dy="1323" grid="1" gridSize="10" guides="1" tooltips="1" connect="1" arrows="1" fold="1" page="1" pageScale="1" pageWidth="827" pageHeight="1169" math="0" shadow="0">
      <root>
        <mxCell id="0" />
        <mxCell id="1" parent="0" />
        <mxCell id="C2U7If8zWJpJN4vxUZfy-31" value="" style="ellipse;whiteSpace=wrap;html=1;aspect=fixed;" vertex="1" parent="1">
          <mxGeometry x="300" y="37.5" width="602.5" height="602.5" as="geometry" />
        </mxCell>
        <mxCell id="C2U7If8zWJpJN4vxUZfy-41" value="" style="ellipse;whiteSpace=wrap;html=1;aspect=fixed;" vertex="1" parent="1">
          <mxGeometry x="412" y="262" width="146" height="146" as="geometry" />
        </mxCell>
        <mxCell id="C2U7If8zWJpJN4vxUZfy-1" value="&lt;div&gt;Toner&lt;/div&gt;&lt;div&gt;cartridges&lt;/div&gt;" style="ellipse;whiteSpace=wrap;html=1;aspect=fixed;" vertex="1" parent="1">
          <mxGeometry x="570" y="280" width="80" height="80" as="geometry" />
        </mxCell>
        <mxCell id="C2U7If8zWJpJN4vxUZfy-2" value="&lt;div&gt;Laser &lt;br&gt;&lt;/div&gt;&lt;div&gt;cartridge&lt;br&gt;&lt;/div&gt;" style="ellipse;whiteSpace=wrap;html=1;aspect=fixed;" vertex="1" parent="1">
          <mxGeometry x="500" y="460" width="80" height="80" as="geometry" />
        </mxCell>
        <mxCell id="C2U7If8zWJpJN4vxUZfy-3" value="&lt;div&gt;Ink&lt;/div&gt;&lt;div&gt;cartridge&lt;br&gt;&lt;/div&gt;" style="ellipse;whiteSpace=wrap;html=1;aspect=fixed;" vertex="1" parent="1">
          <mxGeometry x="620" y="460" width="80" height="80" as="geometry" />
        </mxCell>
        <mxCell id="C2U7If8zWJpJN4vxUZfy-4" value="" style="endArrow=classic;html=1;rounded=0;entryX=0.25;entryY=0.988;entryDx=0;entryDy=0;entryPerimeter=0;" edge="1" parent="1" source="C2U7If8zWJpJN4vxUZfy-2" target="C2U7If8zWJpJN4vxUZfy-1">
          <mxGeometry width="50" height="50" relative="1" as="geometry">
            <mxPoint x="660" y="500" as="sourcePoint" />
            <mxPoint x="710" y="450" as="targetPoint" />
          </mxGeometry>
        </mxCell>
        <mxCell id="C2U7If8zWJpJN4vxUZfy-5" value="" style="endArrow=classic;html=1;rounded=0;entryX=0.725;entryY=0.988;entryDx=0;entryDy=0;entryPerimeter=0;exitX=0.325;exitY=0;exitDx=0;exitDy=0;exitPerimeter=0;" edge="1" parent="1" source="C2U7If8zWJpJN4vxUZfy-3" target="C2U7If8zWJpJN4vxUZfy-1">
          <mxGeometry width="50" height="50" relative="1" as="geometry">
            <mxPoint x="546" y="473" as="sourcePoint" />
            <mxPoint x="590" y="369" as="targetPoint" />
          </mxGeometry>
        </mxCell>
        <mxCell id="C2U7If8zWJpJN4vxUZfy-6" value="Colour" style="ellipse;whiteSpace=wrap;html=1;aspect=fixed;" vertex="1" parent="1">
          <mxGeometry x="800" y="280" width="80" height="80" as="geometry" />
        </mxCell>
        <mxCell id="C2U7If8zWJpJN4vxUZfy-8" value="" style="shape=process;whiteSpace=wrap;html=1;backgroundOutline=1;size=0.5;" vertex="1" parent="1">
          <mxGeometry x="690" y="310" width="60" height="20" as="geometry" />
        </mxCell>
        <mxCell id="C2U7If8zWJpJN4vxUZfy-9" value="" style="endArrow=none;html=1;rounded=0;exitX=1;exitY=0.5;exitDx=0;exitDy=0;entryX=0;entryY=0.5;entryDx=0;entryDy=0;startArrow=oval;startFill=1;" edge="1" parent="1" source="C2U7If8zWJpJN4vxUZfy-1" target="C2U7If8zWJpJN4vxUZfy-8">
          <mxGeometry width="50" height="50" relative="1" as="geometry">
            <mxPoint x="650" y="470" as="sourcePoint" />
            <mxPoint x="700" y="420" as="targetPoint" />
          </mxGeometry>
        </mxCell>
        <mxCell id="C2U7If8zWJpJN4vxUZfy-10" value="" style="endArrow=none;html=1;rounded=0;entryX=0;entryY=0.5;entryDx=0;entryDy=0;exitX=1;exitY=0.5;exitDx=0;exitDy=0;" edge="1" parent="1" source="C2U7If8zWJpJN4vxUZfy-8" target="C2U7If8zWJpJN4vxUZfy-6">
          <mxGeometry width="50" height="50" relative="1" as="geometry">
            <mxPoint x="650" y="470" as="sourcePoint" />
            <mxPoint x="700" y="420" as="targetPoint" />
          </mxGeometry>
        </mxCell>
        <mxCell id="C2U7If8zWJpJN4vxUZfy-11" value="Has" style="text;html=1;strokeColor=none;fillColor=none;align=center;verticalAlign=middle;whiteSpace=wrap;rounded=0;" vertex="1" parent="1">
          <mxGeometry x="670" y="330" width="60" height="30" as="geometry" />
        </mxCell>
        <mxCell id="C2U7If8zWJpJN4vxUZfy-12" value="is-of" style="text;html=1;strokeColor=none;fillColor=none;align=center;verticalAlign=middle;whiteSpace=wrap;rounded=0;" vertex="1" parent="1">
          <mxGeometry x="710" y="330" width="60" height="30" as="geometry" />
        </mxCell>
        <mxCell id="C2U7If8zWJpJN4vxUZfy-13" value="" style="endArrow=classic;startArrow=classic;html=1;rounded=0;" edge="1" parent="1">
          <mxGeometry width="50" height="50" relative="1" as="geometry">
            <mxPoint x="690" y="300" as="sourcePoint" />
            <mxPoint x="720" y="300" as="targetPoint" />
          </mxGeometry>
        </mxCell>
        <mxCell id="C2U7If8zWJpJN4vxUZfy-14" value="&lt;div&gt;Printer&lt;/div&gt;" style="ellipse;whiteSpace=wrap;html=1;aspect=fixed;" vertex="1" parent="1">
          <mxGeometry x="320" y="280" width="80" height="80" as="geometry" />
        </mxCell>
        <mxCell id="C2U7If8zWJpJN4vxUZfy-15" value="" style="shape=process;whiteSpace=wrap;html=1;backgroundOutline=1;size=0.5;" vertex="1" parent="1">
          <mxGeometry x="450" y="310" width="60" height="20" as="geometry" />
        </mxCell>
        <mxCell id="C2U7If8zWJpJN4vxUZfy-16" value="" style="endArrow=none;html=1;rounded=0;exitX=1;exitY=0.5;exitDx=0;exitDy=0;entryX=0;entryY=0.5;entryDx=0;entryDy=0;startArrow=oval;startFill=1;" edge="1" parent="1" target="C2U7If8zWJpJN4vxUZfy-15">
          <mxGeometry width="50" height="50" relative="1" as="geometry">
            <mxPoint x="400" y="320" as="sourcePoint" />
            <mxPoint x="460" y="420" as="targetPoint" />
          </mxGeometry>
        </mxCell>
        <mxCell id="C2U7If8zWJpJN4vxUZfy-17" value="" style="endArrow=oval;html=1;rounded=0;entryX=0;entryY=0.5;entryDx=0;entryDy=0;exitX=1;exitY=0.5;exitDx=0;exitDy=0;endFill=1;" edge="1" parent="1" source="C2U7If8zWJpJN4vxUZfy-15" target="C2U7If8zWJpJN4vxUZfy-1">
          <mxGeometry width="50" height="50" relative="1" as="geometry">
            <mxPoint x="410" y="470" as="sourcePoint" />
            <mxPoint x="560" y="320" as="targetPoint" />
          </mxGeometry>
        </mxCell>
        <mxCell id="C2U7If8zWJpJN4vxUZfy-18" value="has compatible" style="text;html=1;strokeColor=none;fillColor=none;align=center;verticalAlign=middle;whiteSpace=wrap;rounded=0;" vertex="1" parent="1">
          <mxGeometry x="420" y="330" width="60" height="30" as="geometry" />
        </mxCell>
        <mxCell id="C2U7If8zWJpJN4vxUZfy-19" value="is compatible with" style="text;html=1;strokeColor=none;fillColor=none;align=center;verticalAlign=middle;whiteSpace=wrap;rounded=0;rotation=0;" vertex="1" parent="1">
          <mxGeometry x="480" y="320" width="80" height="50" as="geometry" />
        </mxCell>
        <mxCell id="C2U7If8zWJpJN4vxUZfy-21" value="(cartridge number)" style="ellipse;whiteSpace=wrap;html=1;aspect=fixed;" vertex="1" parent="1">
          <mxGeometry x="691" y="115" width="80" height="80" as="geometry" />
        </mxCell>
        <mxCell id="C2U7If8zWJpJN4vxUZfy-22" value="" style="shape=process;whiteSpace=wrap;html=1;backgroundOutline=1;size=0.5;rotation=-55;" vertex="1" parent="1">
          <mxGeometry x="640" y="220" width="60" height="20" as="geometry" />
        </mxCell>
        <mxCell id="C2U7If8zWJpJN4vxUZfy-23" value="" style="endArrow=none;html=1;rounded=0;exitX=0.745;exitY=0.052;exitDx=0;exitDy=0;entryX=0;entryY=0.5;entryDx=0;entryDy=0;startArrow=oval;startFill=1;exitPerimeter=0;" edge="1" parent="1" target="C2U7If8zWJpJN4vxUZfy-22" source="C2U7If8zWJpJN4vxUZfy-1">
          <mxGeometry width="50" height="50" relative="1" as="geometry">
            <mxPoint x="560" y="130" as="sourcePoint" />
            <mxPoint x="620" y="230" as="targetPoint" />
          </mxGeometry>
        </mxCell>
        <mxCell id="C2U7If8zWJpJN4vxUZfy-24" value="" style="endArrow=none;html=1;rounded=0;entryX=0;entryY=1;entryDx=0;entryDy=0;exitX=1;exitY=0.5;exitDx=0;exitDy=0;" edge="1" parent="1" source="C2U7If8zWJpJN4vxUZfy-22" target="C2U7If8zWJpJN4vxUZfy-21">
          <mxGeometry width="50" height="50" relative="1" as="geometry">
            <mxPoint x="570" y="280" as="sourcePoint" />
            <mxPoint x="620" y="230" as="targetPoint" />
          </mxGeometry>
        </mxCell>
        <mxCell id="C2U7If8zWJpJN4vxUZfy-25" value="Has" style="text;html=1;strokeColor=none;fillColor=none;align=center;verticalAlign=middle;whiteSpace=wrap;rounded=0;rotation=-54.9;" vertex="1" parent="1">
          <mxGeometry x="644" y="240" width="60" height="30" as="geometry" />
        </mxCell>
        <mxCell id="C2U7If8zWJpJN4vxUZfy-26" value="is-of" style="text;html=1;strokeColor=none;fillColor=none;align=center;verticalAlign=middle;whiteSpace=wrap;rounded=0;rotation=-56.5;" vertex="1" parent="1">
          <mxGeometry x="664" y="214" width="60" height="30" as="geometry" />
        </mxCell>
        <mxCell id="C2U7If8zWJpJN4vxUZfy-27" value="" style="endArrow=classic;startArrow=classic;html=1;rounded=0;" edge="1" parent="1">
          <mxGeometry width="50" height="50" relative="1" as="geometry">
            <mxPoint x="640" y="245" as="sourcePoint" />
            <mxPoint x="656" y="221" as="targetPoint" />
          </mxGeometry>
        </mxCell>
        <mxCell id="C2U7If8zWJpJN4vxUZfy-29" value="" style="endArrow=classic;startArrow=classic;html=1;rounded=0;" edge="1" parent="1">
          <mxGeometry width="50" height="50" relative="1" as="geometry">
            <mxPoint x="450" y="300" as="sourcePoint" />
            <mxPoint x="510" y="300" as="targetPoint" />
          </mxGeometry>
        </mxCell>
        <mxCell id="C2U7If8zWJpJN4vxUZfy-33" value="Brand" style="ellipse;whiteSpace=wrap;html=1;aspect=fixed;" vertex="1" parent="1">
          <mxGeometry x="110" y="280" width="80" height="80" as="geometry" />
        </mxCell>
        <mxCell id="C2U7If8zWJpJN4vxUZfy-34" value="" style="shape=process;whiteSpace=wrap;html=1;backgroundOutline=1;size=0.5;rotation=-180;" vertex="1" parent="1">
          <mxGeometry x="220" y="310" width="60" height="20" as="geometry" />
        </mxCell>
        <mxCell id="C2U7If8zWJpJN4vxUZfy-35" value="" style="endArrow=none;html=1;rounded=0;entryX=1;entryY=0.5;entryDx=0;entryDy=0;exitX=1;exitY=0.5;exitDx=0;exitDy=0;" edge="1" parent="1" source="C2U7If8zWJpJN4vxUZfy-34" target="C2U7If8zWJpJN4vxUZfy-33">
          <mxGeometry width="50" height="50" relative="1" as="geometry">
            <mxPoint x="350" y="320" as="sourcePoint" />
            <mxPoint x="400" y="270" as="targetPoint" />
          </mxGeometry>
        </mxCell>
        <mxCell id="C2U7If8zWJpJN4vxUZfy-36" value="Has" style="text;html=1;strokeColor=none;fillColor=none;align=center;verticalAlign=middle;whiteSpace=wrap;rounded=0;rotation=0;" vertex="1" parent="1">
          <mxGeometry x="239" y="323" width="60" height="30" as="geometry" />
        </mxCell>
        <mxCell id="C2U7If8zWJpJN4vxUZfy-37" value="is-of" style="text;html=1;strokeColor=none;fillColor=none;align=center;verticalAlign=middle;whiteSpace=wrap;rounded=0;rotation=0;" vertex="1" parent="1">
          <mxGeometry x="202" y="324" width="60" height="30" as="geometry" />
        </mxCell>
        <mxCell id="C2U7If8zWJpJN4vxUZfy-38" value="" style="endArrow=classic;startArrow=classic;html=1;rounded=0;" edge="1" parent="1">
          <mxGeometry width="50" height="50" relative="1" as="geometry">
            <mxPoint x="250" y="300" as="sourcePoint" />
            <mxPoint x="220" y="300" as="targetPoint" />
          </mxGeometry>
        </mxCell>
        <mxCell id="C2U7If8zWJpJN4vxUZfy-39" value="" style="endArrow=none;html=1;rounded=0;exitX=0;exitY=0.5;exitDx=0;exitDy=0;entryX=0;entryY=0.5;entryDx=0;entryDy=0;startArrow=oval;startFill=1;" edge="1" parent="1" source="C2U7If8zWJpJN4vxUZfy-14" target="C2U7If8zWJpJN4vxUZfy-34">
          <mxGeometry width="50" height="50" relative="1" as="geometry">
            <mxPoint x="430" y="290" as="sourcePoint" />
            <mxPoint x="480" y="240" as="targetPoint" />
          </mxGeometry>
        </mxCell>
        <mxCell id="C2U7If8zWJpJN4vxUZfy-40" value="Printers and accessories" style="text;html=1;strokeColor=none;fillColor=none;align=center;verticalAlign=middle;whiteSpace=wrap;rounded=0;" vertex="1" parent="1">
          <mxGeometry x="704" y="30" width="86" height="30" as="geometry" />
        </mxCell>
        <mxCell id="C2U7If8zWJpJN4vxUZfy-42" value="Compatible products" style="text;html=1;strokeColor=none;fillColor=none;align=center;verticalAlign=middle;whiteSpace=wrap;rounded=0;" vertex="1" parent="1">
          <mxGeometry x="450" y="230" width="60" height="30" as="geometry" />
        </mxCell>
        <mxCell id="C2U7If8zWJpJN4vxUZfy-43" value="Price" style="ellipse;whiteSpace=wrap;html=1;aspect=fixed;" vertex="1" parent="1">
          <mxGeometry x="150" y="505" width="80" height="80" as="geometry" />
        </mxCell>
        <mxCell id="C2U7If8zWJpJN4vxUZfy-45" value="" style="shape=process;whiteSpace=wrap;html=1;backgroundOutline=1;size=0.5;rotation=-210;" vertex="1" parent="1">
          <mxGeometry x="250" y="490" width="60" height="20" as="geometry" />
        </mxCell>
        <mxCell id="C2U7If8zWJpJN4vxUZfy-46" value="" style="endArrow=none;html=1;rounded=0;exitX=0;exitY=0.5;exitDx=0;exitDy=0;entryX=0.05;entryY=0.718;entryDx=0;entryDy=0;entryPerimeter=0;" edge="1" parent="1" source="C2U7If8zWJpJN4vxUZfy-45" target="C2U7If8zWJpJN4vxUZfy-31">
          <mxGeometry width="50" height="50" relative="1" as="geometry">
            <mxPoint x="300" y="500" as="sourcePoint" />
            <mxPoint x="350" y="450" as="targetPoint" />
          </mxGeometry>
        </mxCell>
        <mxCell id="C2U7If8zWJpJN4vxUZfy-47" value="" style="endArrow=none;html=1;rounded=0;exitX=1;exitY=0.5;exitDx=0;exitDy=0;entryX=0.987;entryY=0.324;entryDx=0;entryDy=0;entryPerimeter=0;" edge="1" parent="1" source="C2U7If8zWJpJN4vxUZfy-45" target="C2U7If8zWJpJN4vxUZfy-43">
          <mxGeometry width="50" height="50" relative="1" as="geometry">
            <mxPoint x="300" y="500" as="sourcePoint" />
            <mxPoint x="350" y="450" as="targetPoint" />
          </mxGeometry>
        </mxCell>
        <mxCell id="C2U7If8zWJpJN4vxUZfy-50" value="" style="endArrow=classic;startArrow=classic;html=1;rounded=0;" edge="1" parent="1">
          <mxGeometry width="50" height="50" relative="1" as="geometry">
            <mxPoint x="659" y="218" as="sourcePoint" />
            <mxPoint x="675" y="194" as="targetPoint" />
          </mxGeometry>
        </mxCell>
        <mxCell id="C2U7If8zWJpJN4vxUZfy-51" value="&lt;div&gt;is-of&lt;/div&gt;" style="text;html=1;strokeColor=none;fillColor=none;align=center;verticalAlign=middle;whiteSpace=wrap;rounded=0;rotation=-30;" vertex="1" parent="1">
          <mxGeometry x="245" y="512" width="60" height="30" as="geometry" />
        </mxCell>
        <mxCell id="C2U7If8zWJpJN4vxUZfy-52" value="has" style="text;html=1;strokeColor=none;fillColor=none;align=center;verticalAlign=middle;whiteSpace=wrap;rounded=0;rotation=-30;" vertex="1" parent="1">
          <mxGeometry x="276" y="491" width="60" height="30" as="geometry" />
        </mxCell>
        <mxCell id="C2U7If8zWJpJN4vxUZfy-53" value="" style="endArrow=classic;startArrow=classic;html=1;rounded=0;" edge="1" parent="1">
          <mxGeometry width="50" height="50" relative="1" as="geometry">
            <mxPoint x="275" y="483" as="sourcePoint" />
            <mxPoint x="299" y="470" as="targetPoint" />
          </mxGeometry>
        </mxCell>
      </root>
    </mxGraphModel>
  </diagram>
</mxfile>
